<?xml version="1.0" encoding="utf-8"?>
<!-- Svg Vector Icons : http://www.onlinewebfonts.com/icon -->
<!DOCTYPE svg PUBLIC "-//W3C//DTD SVG 1.1//EN" >
<svg version="1.1" xmlns="http://www.w3.org/2000/svg" x="0px" y="0px" viewBox="0 0 256 256" enable-background="new 0 0 256 256" xml:space="preserve">
<metadata> Svg Vector Icons : http://www.onlinewebfonts.com/icon </metadata>
<g><g><path fill="#000000" d="M91.7,118.9H59.9c-3.8,0-7-1.3-9.7-4c-2.6-2.6-4-5.9-4-9.7v-4.5c0-10,3.5-18.6,10.6-25.7C64,68,72.6,64.5,82.6,64.5h9.1c2.5,0,4.6-0.9,6.4-2.7c1.8-1.8,2.7-3.9,2.7-6.4V37.2c0-2.5-0.9-4.6-2.7-6.4c-1.8-1.8-3.9-2.7-6.4-2.7h-9.1c-9.8,0-19.2,1.9-28.2,5.8c-8.9,3.8-16.7,9-23.2,15.5S19.6,63.7,15.7,72.6C11.9,81.6,10,91,10,100.8v99.8c0,7.6,2.6,14,7.9,19.3c5.3,5.3,11.7,7.9,19.3,7.9h54.5c7.6,0,14-2.6,19.3-7.9c5.3-5.3,7.9-11.7,7.9-19.3v-54.4c0-7.6-2.6-14-7.9-19.3C105.7,121.6,99.2,118.9,91.7,118.9z"/><path fill="#000000" d="M238.1,126.9c-5.3-5.3-11.7-7.9-19.3-7.9H187c-3.8,0-7-1.3-9.6-4c-2.6-2.6-4-5.9-4-9.7v-4.5c0-10,3.5-18.6,10.6-25.7c7.1-7.1,15.7-10.6,25.7-10.6h9.1c2.5,0,4.6-0.9,6.4-2.7c1.8-1.8,2.7-3.9,2.7-6.4V37.2c0-2.5-0.9-4.6-2.7-6.4c-1.8-1.8-3.9-2.7-6.4-2.7h-9.1c-9.8,0-19.2,1.9-28.2,5.8c-8.9,3.8-16.7,9-23.2,15.5s-11.7,14.3-15.5,23.2c-3.8,8.9-5.8,18.3-5.8,28.2v99.8c0,7.6,2.6,14,7.9,19.3c5.3,5.3,11.7,7.9,19.3,7.9h54.4c7.6,0,14-2.6,19.3-7.9c5.3-5.3,7.9-11.7,7.9-19.3v-54.4C246,138.6,243.4,132.2,238.1,126.9z"/></g></g>
</svg>